<?xml version="1.0" encoding="utf-8"?>
<!DOCTYPE svg PUBLIC "-//W3C//DTD SVG 1.1//EN" "http://www.w3.org/Graphics/SVG/1.1/DTD/svg11.dtd">
<svg version="1.1" baseProfile="full"
 xmlns="http://www.w3.org/2000/svg"
 xmlns:xlink="http://www.w3.org/1999/xlink"
 xmlns:ev="http://www.w3.org/2001/xml-events" 
  height="17px" 
  width="10px" 
>
<path fill="rgb( 198, 197, 238 )"
 d="M6.84899999999993,16.9930000000001 C6.84899999999993,16.9930000000001 6.84899999999993,9.68100000000004 6.84899999999993,9.68100000000004 C6.84899999999993,9.68100000000004 9.49000000000001,9.68100000000004 9.49000000000001,9.68100000000004 C9.49000000000001,9.68100000000004 9.88599999999997,6.84299999999996 9.88599999999997,6.84299999999996 C9.88599999999997,6.84299999999996 6.84899999999993,6.84299999999996 6.84899999999993,6.84299999999996 C6.84899999999993,6.84299999999996 6.84899999999993,5.02499999999998 6.84899999999993,5.02499999999998 C6.84899999999993,4.20000000000005 7.08799999999997,3.63800000000003 8.36500000000001,3.63800000000003 C8.36500000000001,3.63800000000003 9.99399999999991,3.63900000000001 9.99399999999991,3.63900000000001 C9.99399999999991,3.63900000000001 9.99399999999991,1.09199999999998 9.99399999999991,1.09199999999998 C9.71199999999999,1.05700000000002 8.74499999999989,0.98599999999999 7.62100000000009,0.98599999999999 C5.27199999999993,0.98599999999999 3.66499999999996,2.30600000000004 3.66499999999996,4.74300000000005 C3.66499999999996,4.74300000000005 3.66499999999996,6.84299999999996 3.66499999999996,6.84299999999996 C3.66499999999996,6.84299999999996 0.99800000000005,6.84299999999996 0.99800000000005,6.84299999999996 C0.99800000000005,6.84299999999996 0.99800000000005,9.68100000000004 0.99800000000005,9.68100000000004 C0.99800000000005,9.68100000000004 3.66399999999999,9.68100000000004 3.66399999999999,9.68100000000004 C3.66399999999999,9.68100000000004 3.66399999999999,16.9930000000001 3.66399999999999,16.9930000000001 C3.66399999999999,16.9930000000001 6.84899999999993,16.9930000000001 6.84899999999993,16.9930000000001 Z "/>
</svg>
