<?xml version="1.0" encoding="UTF-8" standalone="no"?>
<svg width="169px" height="60px" viewBox="0 0 169 60" version="1.1" xmlns="http://www.w3.org/2000/svg" xmlns:xlink="http://www.w3.org/1999/xlink" xmlns:sketch="http://www.bohemiancoding.com/sketch/ns">
    <!-- Generator: Sketch 3.3.2 (12043) - http://www.bohemiancoding.com/sketch -->
    <title>Slice 1</title>
    <desc>Created with Sketch.</desc>
    <defs></defs>
    <g id="Page-1" stroke="none" stroke-width="1" fill="none" fill-rule="evenodd" sketch:type="MSPage">
        <g id="type" sketch:type="MSLayerGroup" transform="translate(4.000000, 14.000000)" fill="#FFFFFF">
            <path d="M28.967,23.473 C28.967,25.298 29.88,26.253 31.622,26.253 C32.122,26.253 32.747,26.184 33.384,26.07 C34.155,25.933 34.888,26.459 35.013,27.232 L35.237,28.617 C35.353,29.337 34.9,30.025 34.195,30.207 C32.967,30.523 31.945,30.69 30.875,30.69 C26.561,30.69 24.197,28.243 24.197,23.846 L24.197,2.026 C24.197,1.249 24.827,0.618 25.605,0.618 L27.559,0.618 C28.337,0.618 28.967,1.249 28.967,2.026 L28.967,23.473" id="Fill-1" sketch:type="MSShapeGroup"></path>
            <path d="M43.217,23.473 C43.217,25.298 44.13,26.253 45.872,26.253 C46.373,26.253 46.997,26.184 47.634,26.07 C48.406,25.933 49.139,26.459 49.264,27.232 L49.487,28.617 C49.604,29.337 49.151,30.025 48.445,30.207 C47.217,30.523 46.195,30.69 45.126,30.69 C40.812,30.69 38.447,28.243 38.447,23.846 L38.447,2.026 C38.447,1.249 39.078,0.618 39.855,0.618 L41.81,0.618 C42.587,0.618 43.217,1.249 43.217,2.026 L43.217,23.473" id="Fill-2" sketch:type="MSShapeGroup"></path>
            <path d="M52.909,3.356 C52.909,1.654 54.236,0.41 55.895,0.41 C57.554,0.41 58.882,1.654 58.882,3.356 C58.882,4.972 57.554,6.218 55.895,6.218 C54.236,6.218 52.909,4.972 52.909,3.356 L52.909,3.356 Z M56.189,30.522 L55.643,30.522 C54.476,30.522 53.531,29.577 53.531,28.411 L53.531,12.56 C53.531,11.393 54.476,10.448 55.643,10.448 L56.189,10.448 C57.355,10.448 58.301,11.393 58.301,12.56 L58.301,28.411 C58.301,29.577 57.355,30.522 56.189,30.522 L56.189,30.522 Z" id="Fill-3" sketch:type="MSShapeGroup"></path>
            <path d="M76.433,28.626 C76.549,29.343 76.099,30.028 75.397,30.214 C73.988,30.586 73.084,30.69 71.738,30.69 C67.051,30.69 64.147,27.579 64.147,22.519 L64.147,4.681 C64.147,3.903 64.777,3.273 65.555,3.273 L67.509,3.273 C68.287,3.273 68.917,3.903 68.917,4.681 L68.917,10.448 L73.526,10.448 C74.304,10.448 75.183,11.078 75.183,11.856 L75.183,13.064 C75.183,13.841 74.304,14.472 73.526,14.472 L68.917,14.472 L68.917,22.519 C68.917,25.132 70.328,26.253 72.65,26.253 C73.265,26.253 73.921,26.185 74.562,26.073 C75.342,25.937 76.081,26.451 76.207,27.232 L76.433,28.626" id="Fill-4" sketch:type="MSShapeGroup"></path>
            <path d="M98.437,18.495 L98.437,28.654 C98.437,29.664 97.619,30.483 96.608,30.483 L96.073,30.483 C94.405,30.483 93.709,29.425 93.709,28.119 L93.998,28.784 L93.709,28.948 C92.091,29.82 90.142,30.483 87.694,30.483 C82.716,30.483 79.854,28.078 79.854,24.137 C79.854,20.445 82.8,18.495 87.321,18.495 L93.709,18.495 C93.709,16.047 92.589,13.975 89.561,13.975 C87.798,13.975 86.323,14.666 85.737,15.952 C85.508,16.454 85.03,16.795 84.479,16.795 L82.38,16.795 C81.419,16.795 80.738,15.852 81.043,14.94 C82.226,11.408 85.986,9.868 89.561,9.868 C94.912,9.868 98.437,13.062 98.437,18.495 L98.437,18.495 Z M93.709,24.03 L93.709,23.47 C93.709,22.693 93.079,22.063 92.301,22.063 L87.238,22.063 C85.247,22.063 84.418,23.017 84.418,24.095 C84.418,25.423 85.538,26.543 88.275,26.543 C89.95,26.543 91.369,26.223 93.009,25.247 C93.44,24.991 93.709,24.531 93.709,24.03 L93.709,24.03 Z" id="Fill-5" sketch:type="MSShapeGroup"></path>
            <path d="M19.563,18.495 L19.563,28.654 C19.563,29.664 18.744,30.483 17.734,30.483 L17.199,30.483 C15.531,30.483 14.835,29.425 14.835,28.119 L15.124,28.784 L14.835,28.948 C13.217,29.82 11.267,30.483 8.82,30.483 C3.842,30.483 0.98,28.078 0.98,24.137 C0.98,20.445 3.925,18.495 8.446,18.495 L14.835,18.495 C14.835,16.047 13.715,13.975 10.686,13.975 C8.924,13.975 7.449,14.666 6.862,15.952 C6.634,16.454 6.156,16.795 5.604,16.795 L3.506,16.795 C2.545,16.795 1.863,15.852 2.169,14.94 C3.352,11.408 7.112,9.868 10.686,9.868 C16.037,9.868 19.563,13.062 19.563,18.495 L19.563,18.495 Z M14.835,24.03 L14.835,23.47 C14.835,22.693 14.204,22.063 13.427,22.063 L8.364,22.063 C6.373,22.063 5.543,23.017 5.543,24.095 C5.543,25.423 6.663,26.543 9.401,26.543 C11.076,26.543 12.495,26.223 14.135,25.247 C14.566,24.991 14.835,24.531 14.835,24.03 L14.835,24.03 Z" id="Fill-6" sketch:type="MSShapeGroup"></path>
            <path d="M123.984,20.279 C123.984,25.963 119.89,30.525 114.414,30.525 C112.05,30.525 110.018,29.86 108.442,28.699 L108.442,37.788 C108.442,38.954 107.496,39.899 106.33,39.899 L105.741,39.899 C104.575,39.899 103.63,38.954 103.63,37.788 L103.63,11.817 C103.63,10.746 104.498,9.877 105.57,9.877 L106.502,9.877 C107.573,9.877 108.442,10.746 108.442,11.817 C110.018,10.656 112.05,9.992 114.414,9.992 C119.89,9.992 123.984,14.555 123.984,20.279 L123.984,20.279 Z M119.835,20.279 C119.835,16.573 117.182,14.14 113.645,14.14 L113.581,14.14 C110.555,14.162 108.165,16.641 108.165,19.551 L108.165,20.966 C108.165,23.875 110.555,26.355 113.581,26.376 L113.645,26.376 C117.182,26.376 119.835,23.773 119.835,20.279 L119.835,20.279 Z" id="Fill-7" sketch:type="MSShapeGroup"></path>
            <path d="M148.837,20.279 C148.837,25.963 144.743,30.525 139.268,30.525 C136.903,30.525 134.871,29.86 133.295,28.699 L133.295,37.788 C133.295,38.954 132.35,39.899 131.183,39.899 L130.595,39.899 C129.428,39.899 128.483,38.954 128.483,37.788 L128.483,11.817 C128.483,10.746 129.352,9.877 130.423,9.877 L131.355,9.877 C132.427,9.877 133.295,10.746 133.295,11.817 C134.871,10.656 136.903,9.992 139.268,9.992 C144.743,9.992 148.837,14.555 148.837,20.279 L148.837,20.279 Z M144.688,20.279 C144.688,16.573 142.036,14.14 138.498,14.14 L138.434,14.14 C135.408,14.162 133.018,16.641 133.018,19.551 L133.018,20.966 C133.018,23.875 135.408,26.355 138.434,26.376 L138.498,26.376 C142.036,26.376 144.688,23.773 144.688,20.279 L144.688,20.279 Z" id="Fill-8" sketch:type="MSShapeGroup"></path>
        </g>
    </g>
</svg>