<?xml version="1.0" encoding="UTF-8" standalone="no"?>
<svg width="101px" height="101px" viewBox="0 0 101 101" version="1.1" xmlns="http://www.w3.org/2000/svg" xmlns:xlink="http://www.w3.org/1999/xlink">
    <!-- Generator: Sketch 3.6.1 (26313) - http://www.bohemiancoding.com/sketch -->
    <title>Untitled</title>
    <desc>Created with Sketch.</desc>
    <defs></defs>
    <g id="Page-1" stroke="none" stroke-width="1" fill="none" fill-rule="evenodd">
        <g id="1459898934_circle-arrow-down" fill="#000000">
            <path d="M50.129,0 C22.487,0 0,22.489 0,50.131 C0.002,77.774 22.49,100.262 50.131,100.262 C77.771,100.262 100.257,77.774 100.257,50.131 C100.257,22.489 77.77,0 50.129,0 L50.129,0 Z M50.131,96.262 C24.697,96.262 4.002,75.569 4,50.131 C4,24.694 24.693,4 50.129,4 C75.564,4 96.257,24.694 96.257,50.131 C96.257,75.569 75.565,96.262 50.131,96.262 L50.131,96.262 Z M52.8123951,60.2829998 L52.8123951,35.869199 C52.8123951,34.8374011 51.9163951,34 50.8123951,34 C49.7083951,34 48.8123951,34.8374011 48.8123951,35.869199 L48.8123951,60.2829998 L36.3053951,50.2117557 C35.4683951,49.5379095 34.2043951,49.6257619 33.4843951,50.4080216 C32.7643951,51.1902814 32.8573951,52.3716151 33.6943951,53.0445268 L50.8123951,66.828 L67.9283951,53.0445268 C68.7653951,52.369746 68.8593951,51.1902814 68.1373951,50.4080216 C67.4173951,49.6257619 66.1543951,49.5379095 65.3173951,50.2117557 L52.8123951,60.2829998 Z" id="Shape"></path>
        </g>
    </g>
</svg>