<?xml version="1.0" encoding="utf-8"?>
<!DOCTYPE svg PUBLIC "-//W3C//DTD SVG 1.1//EN" "http://www.w3.org/Graphics/SVG/1.1/DTD/svg11.dtd">
<svg version="1.1" baseProfile="full"
 xmlns="http://www.w3.org/2000/svg"
 xmlns:xlink="http://www.w3.org/1999/xlink"
 xmlns:ev="http://www.w3.org/2001/xml-events"
  height="55px"
  width="204px"
>
<path fill="rgb( 255, 255, 255 )"
 d="M39.106,32.102 C39.106,34.613 40.356,35.927 42.741,35.927 C43.425,35.927 44.281,35.831 45.153,35.675 C46.208,35.487 47.212,36.21 47.383,37.273 C47.383,37.273 47.69,39.179 47.69,39.179 C47.849,40.17 47.229,41.116 46.264,41.366 C44.582,41.801 43.183,42.031 41.718,42.031 C35.812,42.031 32.575,38.664 32.575,32.615 C32.575,32.615 32.575,2.59800000000001 32.575,2.59800000000001 C32.575,1.529 33.438,0.661 34.504,0.661 C34.504,0.661 37.178,0.661 37.178,0.661 C38.243,0.661 39.106,1.529 39.106,2.59800000000001 C39.106,2.59800000000001 39.106,32.102 39.106,32.102 M58.615,32.102 C58.615,34.613 59.865,35.927 62.25,35.927 C62.936,35.927 63.789,35.831 64.662,35.675 C65.719,35.487 66.722,36.21 66.893,37.273 C66.893,37.273 67.199,39.179 67.199,39.179 C67.359,40.17 66.739,41.116 65.772,41.366 C64.091,41.801 62.692,42.031 61.228,42.031 C55.322,42.031 52.085,38.664 52.085,32.615 C52.085,32.615 52.085,2.59800000000001 52.085,2.59800000000001 C52.085,1.529 52.948,0.661 54.012,0.661 C54.012,0.661 56.689,0.661 56.689,0.661 C57.753,0.661 58.615,1.529 58.615,2.59800000000001 C58.615,2.59800000000001 58.615,32.102 58.615,32.102 M71.884,4.428 C71.884,2.08600000000001 73.7,0.375 75.972,0.375 C78.243,0.375 80.061,2.08600000000001 80.061,4.428 C80.061,6.64999999999998 78.243,8.36500000000001 75.972,8.36500000000001 C73.7,8.36500000000001 71.884,6.64999999999998 71.884,4.428 C71.884,4.428 71.884,4.428 71.884,4.428 ZM76.374,41.8 C76.374,41.8 75.626,41.8 75.626,41.8 C74.029,41.8 72.735,40.5 72.735,38.895 C72.735,38.895 72.735,17.089 72.735,17.089 C72.735,15.484 74.029,14.184 75.626,14.184 C75.626,14.184 76.374,14.184 76.374,14.184 C77.97,14.184 79.265,15.484 79.265,17.089 C79.265,17.089 79.265,38.895 79.265,38.895 C79.265,40.5 77.97,41.8 76.374,41.8 C76.374,41.8 76.374,41.8 76.374,41.8 ZM104.089,39.191 C104.248,40.178 103.632,41.12 102.671,41.376 C100.741,41.888 99.504,42.031 97.661,42.031 C91.245,42.031 87.269,37.751 87.269,30.79 C87.269,30.79 87.269,6.25 87.269,6.25 C87.269,5.18000000000001 88.132,4.31299999999999 89.197,4.31299999999999 C89.197,4.31299999999999 91.872,4.31299999999999 91.872,4.31299999999999 C92.937,4.31299999999999 93.8,5.18000000000001 93.8,6.25 C93.8,6.25 93.8,14.184 93.8,14.184 C93.8,14.184 100.11,14.184 100.11,14.184 C101.175,14.184 102.378,15.051 102.378,16.121 C102.378,16.121 102.378,17.783 102.378,17.783 C102.378,18.852 101.175,19.72 100.11,19.72 C100.11,19.72 93.8,19.72 93.8,19.72 C93.8,19.72 93.8,30.79 93.8,30.79 C93.8,34.385 95.731,35.927 98.91,35.927 C99.752,35.927 100.65,35.834 101.528,35.679 C102.596,35.492 103.607,36.2 103.78,37.273 C103.78,37.273 104.089,39.191 104.089,39.191 M134.214,25.254 C134.214,25.254 134.214,39.23 134.214,39.23 C134.214,40.619 133.094,41.746 131.71,41.746 C131.71,41.746 130.977,41.746 130.977,41.746 C128.694,41.746 127.74,40.29 127.74,38.494 C127.74,38.494 128.136,39.408 128.136,39.408 C128.136,39.408 127.74,39.634 127.74,39.634 C125.525,40.834 122.857,41.746 119.506,41.746 C112.691,41.746 108.773,38.437 108.773,33.016 C108.773,27.937 112.806,25.254 118.995,25.254 C118.995,25.254 127.74,25.254 127.74,25.254 C127.74,21.886 126.207,19.036 122.062,19.036 C119.649,19.036 117.629,19.986 116.826,21.756 C116.513,22.447 115.859,22.915 115.104,22.915 C115.104,22.915 112.231,22.915 112.231,22.915 C110.915,22.915 109.983,21.618 110.4,20.363 C112.02,15.505 117.168,13.386 122.062,13.386 C129.388,13.386 134.214,17.78 134.214,25.254 C134.214,25.254 134.214,25.254 134.214,25.254 ZM127.74,32.868 C127.74,32.868 127.74,32.098 127.74,32.098 C127.74,31.029 126.878,30.162 125.813,30.162 C125.813,30.162 118.881,30.162 118.881,30.162 C116.156,30.162 115.021,31.475 115.021,32.958 C115.021,34.785 116.554,36.326 120.301,36.326 C122.595,36.326 124.537,35.885 126.782,34.543 C127.373,34.191 127.74,33.558 127.74,32.868 C127.74,32.868 127.74,32.868 127.74,32.868 ZM26.232,25.254 C26.232,25.254 26.232,39.23 26.232,39.23 C26.232,40.619 25.111,41.746 23.728,41.746 C23.728,41.746 22.995,41.746 22.995,41.746 C20.712,41.746 19.759,40.29 19.759,38.494 C19.759,38.494 20.154,39.408 20.154,39.408 C20.154,39.408 19.759,39.634 19.759,39.634 C17.544,40.834 14.874,41.746 11.524,41.746 C4.709,41.746 0.791,38.437 0.791,33.016 C0.791,27.937 4.822,25.254 11.012,25.254 C11.012,25.254 19.759,25.254 19.759,25.254 C19.759,21.886 18.225,19.036 14.078,19.036 C11.667,19.036 9.64700000000001,19.986 8.843,21.756 C8.532,22.447 7.877,22.915 7.121,22.915 C7.121,22.915 4.249,22.915 4.249,22.915 C2.933,22.915 2,21.618 2.418,20.363 C4.038,15.505 9.185,13.386 14.078,13.386 C21.404,13.386 26.232,17.78 26.232,25.254 C26.232,25.254 26.232,25.254 26.232,25.254 ZM19.759,32.868 C19.759,32.868 19.759,32.098 19.759,32.098 C19.759,31.029 18.895,30.162 17.831,30.162 C17.831,30.162 10.899,30.162 10.899,30.162 C8.174,30.162 7.038,31.475 7.038,32.958 C7.038,34.785 8.57,36.326 12.319,36.326 C14.613,36.326 16.555,35.885 18.8,34.543 C19.39,34.191 19.759,33.558 19.759,32.868 C19.759,32.868 19.759,32.868 19.759,32.868 ZM169.189,27.708 C169.189,35.528 163.584,41.804 156.086,41.804 C152.85,41.804 150.068,40.889 147.911,39.291 C147.911,39.291 147.911,51.796 147.911,51.796 C147.911,53.399 146.616,54.699 145.019,54.699 C145.019,54.699 144.213,54.699 144.213,54.699 C142.616,54.699 141.322,53.399 141.322,51.796 C141.322,51.796 141.322,16.067 141.322,16.067 C141.322,14.594 142.511,13.399 143.979,13.399 C143.979,13.399 145.255,13.399 145.255,13.399 C146.721,13.399 147.911,14.594 147.911,16.067 C150.068,14.47 152.85,13.557 156.086,13.557 C163.584,13.557 169.189,19.834 169.189,27.708 C169.189,27.708 169.189,27.708 169.189,27.708 ZM163.509,27.708 C163.509,22.61 159.876,19.263 155.034,19.263 C155.034,19.263 154.947,19.263 154.947,19.263 C150.804,19.293 147.532,22.704 147.532,26.707 C147.532,26.707 147.532,28.653 147.532,28.653 C147.532,32.655 150.804,36.067 154.947,36.096 C154.947,36.096 155.034,36.096 155.034,36.096 C159.876,36.096 163.509,32.515 163.509,27.708 C163.509,27.708 163.509,27.708 163.509,27.708 ZM203.214,27.708 C203.214,35.528 197.608,41.804 190.113,41.804 C186.875,41.804 184.093,40.889 181.936,39.291 C181.936,39.291 181.936,51.796 181.936,51.796 C181.936,53.399 180.642,54.699 179.044,54.699 C179.044,54.699 178.239,54.699 178.239,54.699 C176.641,54.699 175.347,53.399 175.347,51.796 C175.347,51.796 175.347,16.067 175.347,16.067 C175.347,14.594 176.537,13.399 178.004,13.399 C178.004,13.399 179.28,13.399 179.28,13.399 C180.747,13.399 181.936,14.594 181.936,16.067 C184.093,14.47 186.875,13.557 190.113,13.557 C197.608,13.557 203.214,19.834 203.214,27.708 C203.214,27.708 203.214,27.708 203.214,27.708 ZM197.533,27.708 C197.533,22.61 193.903,19.263 189.059,19.263 C189.059,19.263 188.971,19.263 188.971,19.263 C184.828,19.293 181.557,22.704 181.557,26.707 C181.557,26.707 181.557,28.653 181.557,28.653 C181.557,32.655 184.828,36.067 188.971,36.096 C188.971,36.096 189.059,36.096 189.059,36.096 C193.903,36.096 197.533,32.515 197.533,27.708 C197.533,27.708 197.533,27.708 197.533,27.708 Z "/>
</svg>
