<?xml version="1.0" encoding="utf-8"?>
<!DOCTYPE svg PUBLIC "-//W3C//DTD SVG 1.1//EN" "http://www.w3.org/Graphics/SVG/1.1/DTD/svg11.dtd">
<svg version="1.1" baseProfile="full"
 xmlns="http://www.w3.org/2000/svg"
 xmlns:xlink="http://www.w3.org/1999/xlink"
 xmlns:ev="http://www.w3.org/2001/xml-events" 
  height="16px" 
  width="16px" 
>
<path fill="rgb( 198, 197, 238 )"
 d="M1.22399999999993,5.64200000000005 C1.22399999999993,5.64200000000005 4.13200000000006,5.64200000000005 4.13200000000006,5.64200000000005 C4.13200000000006,5.64200000000005 4.13200000000006,15.011 4.13200000000006,15.011 C4.13200000000006,15.011 1.22399999999993,15.011 1.22399999999993,15.011 C1.22399999999993,15.011 1.22399999999993,5.64200000000005 1.22399999999993,5.64200000000005 ZM2.67900000000009,0.98500000000001 C3.60799999999995,0.98500000000001 4.36300000000006,1.74199999999996 4.36300000000006,2.673 C4.36300000000006,3.60500000000002 3.60799999999995,4.36199999999997 2.67900000000009,4.36199999999997 C1.74600000000009,4.36199999999997 0.99399999999991,3.60500000000002 0.99399999999991,2.673 C0.99399999999991,1.74199999999996 1.74600000000009,0.98500000000001 2.67900000000009,0.98500000000001 M5.95399999999995,5.64200000000005 C5.95399999999995,5.64200000000005 8.73900000000003,5.64200000000005 8.73900000000003,5.64200000000005 C8.73900000000003,5.64200000000005 8.73900000000003,6.923 8.73900000000003,6.923 C8.73900000000003,6.923 8.77800000000002,6.923 8.77800000000002,6.923 C9.16599999999994,6.18600000000004 10.1130000000001,5.40899999999999 11.5260000000001,5.40899999999999 C14.4680000000001,5.40899999999999 15.0119999999999,7.35000000000002 15.0119999999999,9.87300000000005 C15.0119999999999,9.87300000000005 15.0119999999999,15.011 15.0119999999999,15.011 C15.0119999999999,15.011 12.107,15.011 12.107,15.011 C12.107,15.011 12.107,10.455 12.107,10.455 C12.107,9.36800000000005 12.0889999999999,7.97000000000003 10.598,7.97000000000003 C9.08600000000001,7.97000000000003 8.85599999999999,9.15499999999997 8.85599999999999,10.377 C8.85599999999999,10.377 8.85599999999999,15.011 8.85599999999999,15.011 C8.85599999999999,15.011 5.95399999999995,15.011 5.95399999999995,15.011 C5.95399999999995,15.011 5.95399999999995,5.64200000000005 5.95399999999995,5.64200000000005 Z "/>
</svg>
