<?xml version="1.0" encoding="utf-8"?>
<!DOCTYPE svg PUBLIC "-//W3C//DTD SVG 1.1//EN" "http://www.w3.org/Graphics/SVG/1.1/DTD/svg11.dtd">
<svg version="1.1" baseProfile="full"
 xmlns="http://www.w3.org/2000/svg"
 xmlns:xlink="http://www.w3.org/1999/xlink"
 xmlns:ev="http://www.w3.org/2001/xml-events" 
  height="13px" 
  width="16px" 
>
<path fill="rgb( 198, 197, 238 )"
 d="M16,1.53800000000001 C16,1.53800000000001 16,1.53800000000001 16,1.53800000000001 C16,1.53800000000001 16,1.53800000000001 16,1.53800000000001 M11.077,0 C9.2650000000001,0 7.7940000000001,1.47000000000003 7.7940000000001,3.28200000000004 C7.7940000000001,3.53899999999999 7.82300000000009,3.78899999999999 7.87899999999991,4.029 C5.15200000000004,3.89200000000005 2.73299999999995,2.58600000000001 1.11400000000003,0.60000000000002 C0.8309999999999,1.08500000000004 0.6690000000001,1.64999999999998 0.6690000000001,2.25 C0.6690000000001,3.38900000000001 1.24900000000002,4.39400000000001 2.13000000000011,4.98199999999997 C1.5920000000001,4.96500000000003 1.08600000000001,4.81799999999998 0.64300000000003,4.572 C0.64300000000003,4.58600000000001 0.64300000000003,4.60000000000002 0.64300000000003,4.61300000000006 C0.64300000000003,6.20299999999997 1.77399999999989,7.52999999999997 3.27600000000007,7.83100000000002 C3,7.90599999999995 2.71000000000004,7.94600000000003 2.41100000000006,7.94600000000003 C2.19900000000007,7.94600000000003 1.99399999999991,7.92499999999995 1.79299999999989,7.88800000000003 C2.21100000000001,9.19200000000001 3.423,10.14 4.8599999999999,10.1660000000001 C3.7360000000001,11.047 2.32099999999991,11.571 0.7829999999999,11.571 C0.51800000000003,11.571 0.25700000000006,11.556 0,11.526 C1.45299999999997,12.456 3.17800000000011,13 5.03199999999993,13 C11.0699999999999,13 14.3720000000001,7.99900000000002 14.3720000000001,3.66200000000003 C14.3720000000001,3.51999999999998 14.3679999999999,3.37800000000004 14.3620000000001,3.23800000000006 C15.0039999999999,2.77499999999998 15.5599999999999,2.197 16,1.53800000000001 C15.4110000000001,1.79999999999995 14.779,1.976 14.114,2.05499999999995 C14.7929999999999,1.64999999999998 15.3119999999999,1.00599999999997 15.558,0.24000000000001 C14.924,0.61599999999999 14.221,0.88900000000001 13.473,1.03599999999994 C12.875,0.399 12.021,0 11.077,0  "/>
</svg>
